#!OML:ASF X:\für Bonn\!DataBase\2005_08_11_Bastian_Final\c3d\Bastian.ASF
:FULLY-SPECIFIED
:DEGREES
31
root 4.35171 16.615 -0.797753 173.304 -7.96037 -177.156
lowerback 15.7608 -5.04266 -0.596929
upperback 9.89405 -8.56154 1.10559
thorax 2.03584 -5.10739 2.60487
lowerneck -10.4335 -3.98181 -2.54499
upperneck -7.5639 -3.6884 12.6318
head -0.280313 -1.29288 4.52859
rclavicle 7.40473e-014 -4.77083e-015
rhumerus -45.0077 19.455 -97.3956
rradius 101.895
rwrist 10.6055
rhand -12.4749 13.7635
rfingers 7.12502
rthumb 13.5994 -15.7723
lclavicle 7.40473e-014 -4.77083e-015
lhumerus -31.1844 -33.491 95.651
lradius 113.386
lwrist 57.1651
lhand 8.15679 -10.4956
lfingers 7.12502
lthumb 33.3761 16.4245
rfemur -38.1882 -15.8705 26.6156
rtibia 73.6025
rfoot -200.102 -186.649
rtoes -6.99383
lfemur 10.9015 2.86724 -16.3745
ltibia 31.9051
lfoot -30.7677 -6.26081
ltoes -16.2328
32
root 4.29739 16.6158 -0.838376 173.453 -8.05325 -177.326
lowerback 15.763 -5.09894 -0.859021
upperback 9.83824 -8.64962 1.04107
thorax 2.0047 -5.15272 2.69603
lowerneck -10.5385 -3.94047 -2.35268
upperneck -7.45371 -3.66459 12.5775
head -0.234301 -1.27941 4.46934
rclavicle 4.27387e-014 7.95139e-016
rhumerus -44.6343 19.8625 -97.3932
rradius 103.122
rwrist 10.3924
rhand -12.8389 13.8309
rfingers 7.12502
rthumb 13.2485 -15.728
lclavicle 4.27387e-014 7.95139e-016
lhumerus -30.4144 -33.2838 95.7143
lradius 113.702
lwrist 56.8225
lhand 7.53259 -10.7422
lfingers 7.12502
lthumb 32.7825 16.3036
rfemur -39.0769 -16.5445 27.5518
rtibia 73.343
rfoot -200.434 -186.34
rtoes -6.35619
lfemur 11.2263 3.02211 -16.6914
ltibia 31.3136
lfoot -30.6701 -6.34616
ltoes -16.2281
33
root 4.24546 16.6133 -0.882809 173.556 -8.18361 -177.481
lowerback 15.7654 -5.17039 -1.13706
upperback 9.802 -8.76664 0.98807
thorax 2.00154 -5.21661 2.809
lowerneck -10.5673 -3.88917 -2.20458
upperneck -7.4043 -3.6123 12.5728
head -0.221394 -1.25355 4.43985
rclavicle -1.19271e-015 -9.14409e-015
rhumerus -44.2087 20.3157 -97.3633
rradius 104.347
rwrist 10.1469
rhand -13.2355 13.9286
rfingers 7.12502
rthumb 12.8662 -15.6549
lclavicle -1.19271e-015 -9.14409e-015
lhumerus -29.5509 -33.0902 95.7929
lradius 114.006
lwrist 56.5687
lhand 6.88476 -10.9364
lfingers 7.12502
lthumb 32.166 16.2361
rfemur -39.9163 -17.1294 28.4306
rtibia 72.9969
rfoot -200.733 -185.869
rtoes -5.14558
lfemur 11.605 3.13198 -16.978
ltibia 30.7364
lfoot -30.5627 -6.45056
ltoes -16.1987
34
root 4.19587 16.606 -0.927692 173.661 -8.40374 -177.701
lowerback 15.7815 -5.26345 -1.49273
upperback 9.75177 -8.91786 0.917992
thorax 1.98801 -5.29843 2.95303
lowerneck -10.4619 -3.83359 -2.08458
upperneck -7.42916 -3.54188 12.5953
head -0.256141 -1.22477 4.4287
rclavicle 6.85807e-014 -3.02153e-014
rhumerus -43.7801 20.7617 -97.3469
rradius 105.605
rwrist 9.92513
rhand -13.6218 14.0183
rfingers 7.12502
rthumb 12.4937 -15.5882
lclavicle 6.85807e-014 -3.02153e-014
lhumerus -28.6905 -32.9532 95.9312
lradius 114.293
lwrist 56.3264
lhand 6.26491 -11.1218
lfingers 7.12502
lthumb 31.5757 16.1684
rfemur -40.7742 -17.6552 29.1975
rtibia 72.5919
rfoot -200.964 -185.447
rtoes -4.1918
lfemur 11.9665 3.20275 -17.3177
ltibia 30.1926
lfoot -30.4806 -6.65492
ltoes -15.9732
35
root 4.14629 16.5942 -0.974088 173.724 -8.63225 -177.871
lowerback 15.7828 -5.34083 -1.79754
upperback 9.74968 -9.05607 0.875124
thorax 2.0323 -5.37912 3.08889
lowerneck -10.3917 -3.81208 -1.95833
upperneck -7.49093 -3.51324 12.5828
head -0.294481 -1.21612 4.40175
rclavicle -7.13637e-014 2.98177e-014
rhumerus -43.1859 21.1675 -97.2331
rradius 106.814
rwrist 9.7669
rhand -14.0107 14.091
rfingers 7.12502
rthumb 12.1188 -15.538
lclavicle -7.13637e-014 2.98177e-014
lhumerus -27.6629 -32.8978 96.0891
lradius 114.533
lwrist 56.0578
lhand 5.62854 -11.3025
lfingers 7.12502
lthumb 30.9693 16.1048
rfemur -41.6088 -18.1623 30.0094
rtibia 72.1281
rfoot -201.125 -185.089
rtoes -3.40313
lfemur 12.3504 3.33238 -17.5585
ltibia 29.703
lfoot -30.3952 -6.92965
ltoes -15.8079
36
root 4.09734 16.5805 -1.02134 173.775 -8.89011 -178.093
lowerback 15.8282 -5.42869 -2.17303
upperback 9.72909 -9.2149 0.821106
thorax 2.04574 -5.47133 3.26082
lowerneck -10.2172 -3.78047 -1.87057
upperneck -7.59329 -3.46145 12.6086
head -0.364131 -1.20026 4.39889
rclavicle 6.63941e-014 -5.64548e-014
rhumerus -42.5949 21.5834 -97.1646
rradius 108.008
rwrist 9.68019
rhand -14.4292 14.1455
rfingers 7.12502
rthumb 11.7152 -15.5069
lclavicle 6.63941e-014 -5.64548e-014
lhumerus -26.6361 -32.8848 96.2892
lradius 114.72
lwrist 55.6931
lhand 4.94875 -11.6164
lfingers 7.12502
lthumb 30.3211 15.9123
rfemur -42.4301 -18.6285 30.7477
rtibia 71.6072
rfoot -201.229 -184.761
rtoes -3.01514
lfemur 12.7395 3.43686 -17.8569
ltibia 29.2586
lfoot -30.3468 -7.22863
ltoes -15.4771
37
root 4.04765 16.5644 -1.07182 173.792 -9.16806 -178.265
lowerback 15.8557 -5.51802 -2.46568
upperback 9.72612 -9.36893 0.774555
thorax 2.07763 -5.55967 3.39086
lowerneck -10.0417 -3.76978 -1.80827
upperneck -7.67961 -3.43833 12.6494
head -0.425336 -1.19828 4.40524
rclavicle 4.07509e-014 -1.43125e-014
rhumerus -41.87 21.9547 -97.0848
rradius 109.036
rwrist 9.61454
rhand -14.8931 14.2379
rfingers 7.12502
rthumb 11.2679 -15.4394
lclavicle 4.07509e-014 -1.43125e-014
lhumerus -25.544 -32.9612 96.5018
lradius 114.887
lwrist 55.316
lhand 4.28629 -11.9605
lfingers 7.12502
lthumb 29.689 15.6826
rfemur -43.2043 -19.0535 31.5019
rtibia 71.009
rfoot -201.273 -184.563
rtoes -3.30578
lfemur 13.1508 3.52069 -18.0952
ltibia 28.8505
lfoot -30.298 -7.54144
ltoes -15.0831
38
root 3.99783 16.5492 -1.12574 173.809 -9.46447 -178.484
lowerback 15.8938 -5.61395 -2.82506
upperback 9.70964 -9.53844 0.728962
thorax 2.10331 -5.65766 3.56142
lowerneck -9.80138 -3.75157 -1.74851
upperneck -7.79453 -3.40243 12.6829
head -0.508335 -1.19401 4.41114
rclavicle 4.8901e-014 -3.65764e-014
rhumerus -41.0052 22.3894 -96.9905
rradius 109.88
rwrist 9.52294
rhand -15.392 14.3997
rfingers 7.12502
rthumb 10.7867 -15.3034
lclavicle 4.8901e-014 -3.65764e-014
lhumerus -24.4145 -33.0747 96.7509
lradius 114.976
lwrist 54.8714
lhand 3.63201 -12.4203
lfingers 7.12502
lthumb 29.0643 15.3324
rfemur -43.9286 -19.3576 32.1089
rtibia 70.3504
rfoot -201.319 -184.402
rtoes -3.61334
lfemur 13.5764 3.62816 -18.3574
ltibia 28.4508
lfoot -30.2327 -7.90241
ltoes -14.6957
39
root 3.94776 16.5326 -1.18308 173.807 -9.77374 -178.663
lowerback 15.906 -5.70697 -3.11779
upperback 9.71243 -9.69889 0.690272
thorax 2.15497 -5.75064 3.69622
lowerneck -9.5716 -3.75827 -1.72874
upperneck -7.90603 -3.39709 12.7331
head -0.584618 -1.20365 4.42985
rclavicle -8.94531e-015 -1.78906e-014
rhumerus -40.0479 22.7979 -96.8308
rradius 110.661
rwrist 9.50226
rhand -15.9509 14.555
rfingers 7.12502
rthumb 10.2475 -15.1754
lclavicle -8.94531e-015 -1.78906e-014
lhumerus -23.2441 -33.288 97.0165
lradius 115.058
lwrist 54.3675
lhand 3.00344 -12.9404
lfingers 7.12502
lthumb 28.4638 14.9143
rfemur -44.5888 -19.5602 32.6741
rtibia 69.6197
rfoot -201.368 -184.401
rtoes -4.28973
lfemur 14.0142 3.70569 -18.5809
ltibia 28.0789
lfoot -30.2172 -8.23536
ltoes -14.3263
40
root 3.89593 16.5165 -1.24368 173.794 -10.1006 -178.884
lowerback 15.9221 -5.79901 -3.44159
upperback 9.72433 -9.86528 0.646382
thorax 2.22095 -5.84965 3.84163
lowerneck -9.34658 -3.77424 -1.70703
upperneck -8.03205 -3.40167 12.7814
head -0.664214 -1.21821 4.44754
rclavicle 3.71727e-014 -1.78906e-014
rhumerus -39.0507 23.2455 -96.607
rradius 111.455
rwrist 9.41614
rhand -16.5067 14.7582
rfingers 7.12502
rthumb 9.71129 -14.9979
lclavicle 3.71727e-014 -1.78906e-014
lhumerus -21.9877 -33.541 97.2485
lradius 115.078
lwrist 53.8603
lhand 2.43182 -13.5058
lfingers 7.12502
lthumb 27.9175 14.439
rfemur -45.1814 -19.6958 33.1262
rtibia 68.8362
rfoot -201.437 -184.508
rtoes -5.2149
lfemur 14.4763 3.80775 -18.8327
ltibia 27.7229
lfoot -30.198 -8.61082
ltoes -13.9784
41
root 3.84327 16.4994 -1.3071 173.773 -10.4592 -179.077
lowerback 15.9539 -5.90856 -3.71206
upperback 9.70995 -10.0412 0.596522
thorax 2.24292 -5.94657 3.95825
lowerneck -9.03009 -3.78844 -1.63241
upperneck -8.17088 -3.413 12.771
head -0.765935 -1.24388 4.43484
rclavicle -1.74931e-014 7.95139e-016
rhumerus -38.003 23.6924 -96.364
rradius 112.253
rwrist 9.30798
rhand -17.0579 14.8994
rfingers 7.12502
rthumb 9.17951 -14.8808
lclavicle -1.74931e-014 7.95139e-016
lhumerus -20.781 -33.89 97.4895
lradius 115.068
lwrist 53.323
lhand 1.86663 -14.1157
lfingers 7.12502
lthumb 27.377 13.9157
rfemur -45.7163 -19.7845 33.5402
rtibia 67.9952
rfoot -201.503 -184.717
rtoes -6.30796
lfemur 14.9388 3.869 -19.0598
ltibia 27.38
lfoot -30.1821 -8.94108
ltoes -13.7056
42
root 3.78905 16.4825 -1.37413 173.741 -10.8322 -179.252
lowerback 15.9595 -6.01245 -3.95297
upperback 9.72236 -10.2117 0.56575
thorax 2.30709 -6.04422 4.07064
lowerneck -8.8396 -3.81761 -1.58879
upperneck -8.24066 -3.44767 12.798
head -0.819666 -1.27269 4.43869
rclavicle -1.32589e-013 4.49253e-014
rhumerus -36.7919 24.1431 -96.0289
rradius 112.973
rwrist 9.22124
rhand -17.6199 15.1282
rfingers 7.12502
rthumb 8.63712 -14.6751
lclavicle -1.32589e-013 4.49253e-014
lhumerus -19.4707 -34.2658 97.7081
lradius 114.99
lwrist 52.8033
lhand 1.44378 -14.715
lfingers 7.12502
lthumb 26.9725 13.3797
rfemur -46.1949 -19.8149 33.891
rtibia 67.097
rfoot -201.557 -184.963
rtoes -7.37931
lfemur 15.4331 3.91583 -19.2683
ltibia 27.0205
lfoot -30.1572 -9.26992
ltoes -13.4523
